<?xml version="1.0" encoding="UTF-8"?><svg xmlns="http://www.w3.org/2000/svg" viewBox="0 0 128 128" fill="#ad8a56"><defs><g id="handle"><path d="&#xA;      M 8 60&#xA;      a 2,2 0 0 1 2,-2&#xA;      h 14&#xA;      v -12&#xA;      a 2,2 0 0 1 2,-2&#xA;      h 8&#xA;      a 2,2 0 0 1 2,2&#xA;      v 36&#xA;      a 2,2 0 0 1 -2,2&#xA;      h -8&#xA;      a 2,2 0 0 1 -2,-2&#xA;      v -12&#xA;      h -14&#xA;      a 2,2 0 0 1 -2,-2&#xA;      z" /></g></defs><g transform="translate(-19.2 -19.2) scale(1.3) rotate(-45 64 64)"><path d="&#xA;      M 38 55&#xA;      l 68 0&#xA;      14 9&#xA;      -14 9&#xA;      -68 0&#xA;      z" /><!-- This works in the browser, but many online converters
         seem unable to handle <use>, maybe because of the change
         from xlink:href to just href in SVG 2. --><use href="#handle" /><use transform="rotate(-90 64 64)" href="#handle" /><rect y="75" height="15" x="55" width="18" /><path d="&#xA;      M 55 53&#xA;      l 0 -30&#xA;      9 -14&#xA;      9 14&#xA;      0 30&#xA;      z" /></g></svg>