<svg xmlns="http://www.w3.org/2000/svg" viewBox="0 0 128 128">
  <defs>
    <g id="handle">
    <path d="
      M 8 60
      a 2,2 0 0 1 2,-2
      h 14
      v -12
      a 2,2 0 0 1 2,-2
      h 8
      a 2,2 0 0 1 2,2
      v 36
      a 2,2 0 0 1 -2,2
      h -8
      a 2,2 0 0 1 -2,-2
      v -12
      h -14
      a 2,2 0 0 1 -2,-2
      z"/>
    </g>
  </defs>
  <g transform="translate(-19.2 -19.2) scale(1.3) rotate(-45 64 64)">
    <path d="
      M 38 55
      l 68 0
      14 9
      -14 9
      -68 0
      z"/>
    <!-- This works in the browser, but many online converters
         seem unable to handle <use>, maybe because of the change
         from xlink:href to just href in SVG 2. -->
    <use href="#handle"/>
    <use href="#handle" transform="rotate(-90 64 64)"/>
    <rect x="55" y="75" width="18" height="15"/>
    <path d="
      M 55 53
      l 0 -30
      9 -14
      9 14
      0 30
      z"/>
  </g>
</svg>
